<mxfile host="app.diagrams.net" modified="2022-08-18T13:44:11.526Z" agent="5.0 (Windows NT 10.0; Win64; x64) AppleWebKit/537.36 (KHTML, like Gecko) Chrome/104.0.5112.81 Safari/537.36 Edg/104.0.1293.54" etag="B9AyYdn36k6yJP_Q_hii" version="20.2.4" type="github">
  <diagram id="Pp36j_mKQcPenpa2n8PQ" name="Page-1">
    <mxGraphModel dx="1108" dy="482" grid="1" gridSize="10" guides="1" tooltips="1" connect="1" arrows="1" fold="1" page="1" pageScale="1" pageWidth="850" pageHeight="1100" math="0" shadow="0">
      <root>
        <mxCell id="0" />
        <mxCell id="1" parent="0" />
        <mxCell id="JjqADpXJpMOCgIi0J_wF-36" value="" style="endArrow=diamondThin;endFill=1;endSize=24;html=1;rounded=0;entryX=0.25;entryY=1;entryDx=0;entryDy=0;exitX=0.25;exitY=0;exitDx=0;exitDy=0;" parent="1" source="8zKiFMvIt5Ifi8QIb3G6-16" target="8zKiFMvIt5Ifi8QIb3G6-15" edge="1">
          <mxGeometry width="160" relative="1" as="geometry">
            <mxPoint x="175" y="680" as="sourcePoint" />
            <mxPoint x="175.05999999999995" y="575.01" as="targetPoint" />
          </mxGeometry>
        </mxCell>
        <mxCell id="JjqADpXJpMOCgIi0J_wF-48" value="" style="endArrow=diamondThin;endFill=1;endSize=24;html=1;rounded=0;entryX=0.75;entryY=1;entryDx=0;entryDy=0;exitX=-0.019;exitY=0.1;exitDx=0;exitDy=0;exitPerimeter=0;" parent="1" source="8zKiFMvIt5Ifi8QIb3G6-25" target="8zKiFMvIt5Ifi8QIb3G6-7" edge="1">
          <mxGeometry width="160" relative="1" as="geometry">
            <mxPoint x="640" y="645" as="sourcePoint" />
            <mxPoint x="573.06" y="635.01" as="targetPoint" />
          </mxGeometry>
        </mxCell>
        <mxCell id="8zKiFMvIt5Ifi8QIb3G6-1" value="" style="endArrow=none;html=1;rounded=0;exitX=1;exitY=0.5;exitDx=0;exitDy=0;" parent="1" source="8zKiFMvIt5Ifi8QIb3G6-15" target="8zKiFMvIt5Ifi8QIb3G6-7" edge="1">
          <mxGeometry width="50" height="50" relative="1" as="geometry">
            <mxPoint x="290" y="525" as="sourcePoint" />
            <mxPoint x="450" y="525" as="targetPoint" />
          </mxGeometry>
        </mxCell>
        <mxCell id="8zKiFMvIt5Ifi8QIb3G6-2" value="" style="endArrow=none;html=1;rounded=0;entryX=0;entryY=1;entryDx=0;entryDy=0;" parent="1" target="8zKiFMvIt5Ifi8QIb3G6-7" edge="1">
          <mxGeometry width="50" height="50" relative="1" as="geometry">
            <mxPoint x="280" y="720" as="sourcePoint" />
            <mxPoint x="450" y="630" as="targetPoint" />
            <Array as="points" />
          </mxGeometry>
        </mxCell>
        <mxCell id="8zKiFMvIt5Ifi8QIb3G6-3" value="" style="endArrow=none;html=1;rounded=0;exitX=1;exitY=0.5;exitDx=0;exitDy=0;entryX=0.006;entryY=0.689;entryDx=0;entryDy=0;entryPerimeter=0;" parent="1" target="8zKiFMvIt5Ifi8QIb3G6-25" edge="1">
          <mxGeometry width="50" height="50" relative="1" as="geometry">
            <mxPoint x="280" y="755" as="sourcePoint" />
            <mxPoint x="640" y="705" as="targetPoint" />
          </mxGeometry>
        </mxCell>
        <mxCell id="8zKiFMvIt5Ifi8QIb3G6-7" value="&lt;p style=&quot;margin:0px;margin-top:4px;text-align:center;&quot;&gt;&lt;b&gt;Employee&lt;/b&gt;&lt;/p&gt;&lt;hr size=&quot;1&quot;&gt;&lt;p style=&quot;margin:0px;margin-left:4px;&quot;&gt;- id: int&lt;/p&gt;&lt;p style=&quot;margin:0px;margin-left:4px;&quot;&gt;- name: String&lt;/p&gt;&lt;p style=&quot;margin:0px;margin-left:4px;&quot;&gt;- birthDate: Date&lt;/p&gt;&lt;p style=&quot;margin:0px;margin-left:4px;&quot;&gt;- phone: int&lt;/p&gt;&lt;p style=&quot;margin:0px;margin-left:4px;&quot;&gt;- gender: String&lt;/p&gt;&lt;p style=&quot;margin:0px;margin-left:4px;&quot;&gt;- tasks: List&amp;lt;Task&amp;gt;&lt;/p&gt;&lt;p style=&quot;margin:0px;margin-left:4px;&quot;&gt;- qualifications: List&amp;lt;Qualification&amp;gt;&lt;/p&gt;&lt;p style=&quot;margin:0px;margin-left:4px;&quot;&gt;- department: Department&lt;/p&gt;&lt;p style=&quot;margin:0px;margin-left:4px;&quot;&gt;- projects: List&amp;lt;Project&amp;gt;&lt;/p&gt;&lt;hr size=&quot;1&quot;&gt;&lt;p style=&quot;margin:0px;margin-left:4px;&quot;&gt;+ checkIfEmpExist(String): boolean&lt;/p&gt;&lt;p style=&quot;margin:0px;margin-left:4px;&quot;&gt;+ getEmployee(String): Employee&lt;/p&gt;" style="verticalAlign=top;align=left;overflow=fill;fontSize=12;fontFamily=Helvetica;html=1;" parent="1" vertex="1">
          <mxGeometry x="480" y="360" width="200" height="220" as="geometry" />
        </mxCell>
        <mxCell id="8zKiFMvIt5Ifi8QIb3G6-15" value="&lt;p style=&quot;margin:0px;margin-top:4px;text-align:center;&quot;&gt;&lt;b&gt;Project&lt;/b&gt;&lt;/p&gt;&lt;hr size=&quot;1&quot;&gt;&lt;p style=&quot;margin:0px;margin-left:4px;&quot;&gt;&lt;span style=&quot;background-color: initial;&quot;&gt;- projName: String&lt;/span&gt;&lt;br&gt;&lt;/p&gt;&lt;p style=&quot;margin:0px;margin-left:4px;&quot;&gt;- details: String&lt;/p&gt;&lt;p style=&quot;margin:0px;margin-left:4px;&quot;&gt;- manager: Employee&lt;/p&gt;&lt;p style=&quot;margin:0px;margin-left:4px;&quot;&gt;- tasks: List&amp;lt;Task&amp;gt;&lt;/p&gt;&lt;hr size=&quot;1&quot;&gt;&lt;p style=&quot;margin:0px;margin-left:4px;&quot;&gt;+ checkIfProjExist(String): boolean&lt;/p&gt;&lt;p style=&quot;margin:0px;margin-left:4px;&quot;&gt;+ getProject(String):&amp;nbsp;Project&lt;/p&gt;" style="verticalAlign=top;align=left;overflow=fill;fontSize=12;fontFamily=Helvetica;html=1;" parent="1" vertex="1">
          <mxGeometry x="100" y="420" width="205" height="150" as="geometry" />
        </mxCell>
        <mxCell id="8zKiFMvIt5Ifi8QIb3G6-16" value="&lt;p style=&quot;margin:0px;margin-top:4px;text-align:center;&quot;&gt;&lt;b&gt;Task&lt;/b&gt;&lt;/p&gt;&lt;hr size=&quot;1&quot;&gt;&lt;p style=&quot;margin:0px;margin-left:4px;&quot;&gt;- name: String&lt;/p&gt;&lt;p style=&quot;margin:0px;margin-left:4px;&quot;&gt;- employees:&amp;nbsp;List&amp;lt;Employee&amp;gt;&lt;/p&gt;&lt;p style=&quot;margin:0px;margin-left:4px;&quot;&gt;- qualifications:&amp;nbsp;List&amp;lt;Qualification&amp;gt;&lt;/p&gt;&lt;p style=&quot;margin:0px;margin-left:4px;&quot;&gt;- subTasks:&amp;nbsp;List&amp;lt;Task&amp;gt;&lt;/p&gt;&lt;p style=&quot;margin:0px;margin-left:4px;&quot;&gt;- status: String&lt;/p&gt;&lt;hr size=&quot;1&quot;&gt;&lt;p style=&quot;margin:0px;margin-left:4px;&quot;&gt;+ checkIfTaskExist(String): boolean&lt;/p&gt;&lt;p style=&quot;margin:0px;margin-left:4px;&quot;&gt;+ getTask(String): Task&lt;/p&gt;" style="verticalAlign=top;align=left;overflow=fill;fontSize=12;fontFamily=Helvetica;html=1;" parent="1" vertex="1">
          <mxGeometry x="90" y="710" width="205" height="170" as="geometry" />
        </mxCell>
        <mxCell id="8zKiFMvIt5Ifi8QIb3G6-21" value="self call" style="edgeStyle=orthogonalEdgeStyle;html=1;align=left;spacingLeft=2;endArrow=block;rounded=0;exitX=1;exitY=0.75;exitDx=0;exitDy=0;" parent="1" source="8zKiFMvIt5Ifi8QIb3G6-16" target="8zKiFMvIt5Ifi8QIb3G6-16" edge="1">
          <mxGeometry relative="1" as="geometry">
            <mxPoint x="310" y="800" as="sourcePoint" />
            <Array as="points">
              <mxPoint x="295" y="830" />
              <mxPoint x="320" y="830" />
              <mxPoint x="320" y="800" />
            </Array>
            <mxPoint x="330" y="830" as="targetPoint" />
          </mxGeometry>
        </mxCell>
        <mxCell id="8zKiFMvIt5Ifi8QIb3G6-24" value="&lt;p style=&quot;margin:0px;margin-top:4px;text-align:center;&quot;&gt;&lt;b&gt;Department&lt;/b&gt;&lt;/p&gt;&lt;hr size=&quot;1&quot;&gt;&lt;p style=&quot;margin:0px;margin-left:4px;&quot;&gt;- depName: String&lt;/p&gt;&lt;p style=&quot;margin:0px;margin-left:4px;&quot;&gt;&lt;span style=&quot;background-color: initial;&quot;&gt;- employees:&amp;nbsp;List&amp;lt;Employee&amp;gt;&lt;/span&gt;&lt;br&gt;&lt;/p&gt;&lt;hr size=&quot;1&quot;&gt;&lt;p style=&quot;margin:0px;margin-left:4px;&quot;&gt;+ checkIfDepExist(String): boolean&lt;/p&gt;&lt;p style=&quot;margin:0px;margin-left:4px;&quot;&gt;+ getDep(String): Department&lt;/p&gt;" style="verticalAlign=top;align=left;overflow=fill;fontSize=12;fontFamily=Helvetica;html=1;" parent="1" vertex="1">
          <mxGeometry x="500" y="790" width="200" height="130" as="geometry" />
        </mxCell>
        <mxCell id="8zKiFMvIt5Ifi8QIb3G6-25" value="&lt;p style=&quot;margin:0px;margin-top:4px;text-align:center;&quot;&gt;&lt;b&gt;Qualification&lt;/b&gt;&lt;/p&gt;&lt;hr size=&quot;1&quot;&gt;&lt;p style=&quot;margin:0px;margin-left:4px;&quot;&gt;- qualName: String&lt;/p&gt;&lt;hr size=&quot;1&quot;&gt;&lt;p style=&quot;margin:0px;margin-left:4px;&quot;&gt;+ checkIfQualExist(String): boolean&lt;/p&gt;&lt;p style=&quot;margin:0px;margin-left:4px;&quot;&gt;&lt;br&gt;&lt;/p&gt;" style="verticalAlign=top;align=left;overflow=fill;fontSize=12;fontFamily=Helvetica;html=1;" parent="1" vertex="1">
          <mxGeometry x="650" y="640" width="200" height="90" as="geometry" />
        </mxCell>
        <mxCell id="-z-BCLmJ1Vy9uva1n-6p-1" style="edgeStyle=orthogonalEdgeStyle;rounded=0;orthogonalLoop=1;jettySize=auto;html=1;exitX=0.5;exitY=1;exitDx=0;exitDy=0;" parent="1" source="8zKiFMvIt5Ifi8QIb3G6-16" target="8zKiFMvIt5Ifi8QIb3G6-16" edge="1">
          <mxGeometry relative="1" as="geometry" />
        </mxCell>
        <mxCell id="-z-BCLmJ1Vy9uva1n-6p-3" value="" style="endArrow=diamondThin;endFill=1;endSize=24;html=1;rounded=0;entryX=0.75;entryY=1;entryDx=0;entryDy=0;exitX=0.25;exitY=0;exitDx=0;exitDy=0;" parent="1" source="8zKiFMvIt5Ifi8QIb3G6-24" edge="1">
          <mxGeometry width="160" relative="1" as="geometry">
            <mxPoint x="556.1999999999998" y="649.0000000000002" as="sourcePoint" />
            <mxPoint x="540" y="580" as="targetPoint" />
          </mxGeometry>
        </mxCell>
        <mxCell id="Gsw49YHzjqZec33lsDPl-1" value="0..*" style="text;html=1;resizable=0;autosize=1;align=center;verticalAlign=middle;points=[];fillColor=none;strokeColor=none;rounded=0;" parent="1" vertex="1">
          <mxGeometry x="540" y="595" width="40" height="30" as="geometry" />
        </mxCell>
        <mxCell id="Gsw49YHzjqZec33lsDPl-3" value="1" style="text;html=1;resizable=0;autosize=1;align=center;verticalAlign=middle;points=[];fillColor=none;strokeColor=none;rounded=0;" parent="1" vertex="1">
          <mxGeometry x="540" y="760" width="30" height="30" as="geometry" />
        </mxCell>
        <mxCell id="Gsw49YHzjqZec33lsDPl-4" value="0..*" style="text;html=1;resizable=0;autosize=1;align=center;verticalAlign=middle;points=[];fillColor=none;strokeColor=none;rounded=0;" parent="1" vertex="1">
          <mxGeometry x="440" y="560" width="40" height="30" as="geometry" />
        </mxCell>
        <mxCell id="Gsw49YHzjqZec33lsDPl-5" value="0..*" style="text;html=1;resizable=0;autosize=1;align=center;verticalAlign=middle;points=[];fillColor=none;strokeColor=none;rounded=0;" parent="1" vertex="1">
          <mxGeometry x="270" y="680" width="40" height="30" as="geometry" />
        </mxCell>
        <mxCell id="Gsw49YHzjqZec33lsDPl-6" value="0..*" style="text;html=1;resizable=0;autosize=1;align=center;verticalAlign=middle;points=[];fillColor=none;strokeColor=none;rounded=0;" parent="1" vertex="1">
          <mxGeometry x="305" y="460" width="40" height="30" as="geometry" />
        </mxCell>
        <mxCell id="Gsw49YHzjqZec33lsDPl-7" value="1" style="text;html=1;resizable=0;autosize=1;align=center;verticalAlign=middle;points=[];fillColor=none;strokeColor=none;rounded=0;" parent="1" vertex="1">
          <mxGeometry x="440" y="450" width="30" height="30" as="geometry" />
        </mxCell>
        <mxCell id="Gsw49YHzjqZec33lsDPl-8" value="0..*" style="text;html=1;resizable=0;autosize=1;align=center;verticalAlign=middle;points=[];fillColor=none;strokeColor=none;rounded=0;" parent="1" vertex="1">
          <mxGeometry x="145" y="680" width="40" height="30" as="geometry" />
        </mxCell>
        <mxCell id="Gsw49YHzjqZec33lsDPl-9" value="1" style="text;html=1;resizable=0;autosize=1;align=center;verticalAlign=middle;points=[];fillColor=none;strokeColor=none;rounded=0;" parent="1" vertex="1">
          <mxGeometry x="155" y="580" width="30" height="30" as="geometry" />
        </mxCell>
        <mxCell id="Gsw49YHzjqZec33lsDPl-10" value="0..*" style="text;html=1;resizable=0;autosize=1;align=center;verticalAlign=middle;points=[];fillColor=none;strokeColor=none;rounded=0;" parent="1" vertex="1">
          <mxGeometry x="610" y="680" width="40" height="30" as="geometry" />
        </mxCell>
        <mxCell id="Gsw49YHzjqZec33lsDPl-11" value="0..*" style="text;html=1;resizable=0;autosize=1;align=center;verticalAlign=middle;points=[];fillColor=none;strokeColor=none;rounded=0;" parent="1" vertex="1">
          <mxGeometry x="295" y="720" width="40" height="30" as="geometry" />
        </mxCell>
        <mxCell id="C9K_KFsBuIpwAIrWxW-p-1" value="0..*" style="text;html=1;resizable=0;autosize=1;align=center;verticalAlign=middle;points=[];fillColor=none;strokeColor=none;rounded=0;" vertex="1" parent="1">
          <mxGeometry x="640" y="580" width="40" height="30" as="geometry" />
        </mxCell>
        <mxCell id="C9K_KFsBuIpwAIrWxW-p-2" value="0..*" style="text;html=1;resizable=0;autosize=1;align=center;verticalAlign=middle;points=[];fillColor=none;strokeColor=none;rounded=0;" vertex="1" parent="1">
          <mxGeometry x="640" y="620" width="40" height="30" as="geometry" />
        </mxCell>
      </root>
    </mxGraphModel>
  </diagram>
</mxfile>
